# xmcd CD database file generated by Grip 2.95
# 
# Track frame offsets:
#       150
#       19235
#       31012
#       44025
#       71622
#       88087
#       102222
#       116925
#       140287
#       150485
#       161735
#       184012
#       209325
# 
# Disc length: 3244 seconds
# 
# Revision: 3
# Processed by: cddbd v1.4b41PL1 Copyright (c) Steve Scherf et al.
# Submitted via: Grip 2.95
# 
DISCID=b10caa0d
DTITLE=Sir Oliver's Blues Distillery - Beware of Cats
DYEAR=1900
DGENRE=
TTITLE0=Beware of Cats
TTITLE1=you'd better not touch my guitar
TTITLE2=she aint't too good lookin
TTITLE3=fool for you
TTITLE4=(you're like a) watchdog
TTITLE5=steamroller
TTITLE6=watch out
TTITLE7=heavy head champion
TTITLE8=call me trouble
TTITLE9=she's a real upsetter
TTITLE10=bad news
TTITLE11=you've been cheatin'on me
TTITLE12=madclub boogie
EXTD=
EXTT0=
EXTT1=
EXTT2=
EXTT3=
EXTT4=
EXTT5=
EXTT6=
EXTT7=
EXTT8=
EXTT9=
EXTT10=
EXTT11=
EXTT12=
PLAYORDER=
